<?xml version="1.0" encoding="UTF-8" standalone="no"?>
<!-- Created with Inkscape (http://www.inkscape.org/) -->

<svg
   width="210mm"
   height="297mm"
   viewBox="0 0 210 297"
   version="1.1"
   id="svg5"
   inkscape:version="1.1 (c68e22c387, 2021-05-23)"
   sodipodi:docname="linkdin.svg"
   xmlns:inkscape="http://www.inkscape.org/namespaces/inkscape"
   xmlns:sodipodi="http://sodipodi.sourceforge.net/DTD/sodipodi-0.dtd"
   xmlns="http://www.w3.org/2000/svg"
   xmlns:svg="http://www.w3.org/2000/svg">
  <sodipodi:namedview
     id="namedview7"
     pagecolor="#ffffff"
     bordercolor="#666666"
     borderopacity="1.0"
     inkscape:pageshadow="2"
     inkscape:pageopacity="0.0"
     inkscape:pagecheckerboard="0"
     inkscape:document-units="mm"
     showgrid="false"
     inkscape:zoom="6.5542248"
     inkscape:cx="323.68435"
     inkscape:cy="368.69349"
     inkscape:window-width="1902"
     inkscape:window-height="983"
     inkscape:window-x="32"
     inkscape:window-y="0"
     inkscape:window-maximized="0"
     inkscape:current-layer="layer1"
     inkscape:lockguides="false" />
  <defs
     id="defs2" />
  <g
     inkscape:label="Layer 1"
     inkscape:groupmode="layer"
     id="layer1"
     style="display:inline">
    <path
       style="opacity:1;mix-blend-mode:normal;fill:#ffffff;stroke:#000000;stroke-width:0;stroke-linecap:butt;stroke-linejoin:miter;stroke-miterlimit:4;stroke-dasharray:none;stroke-opacity:1"
       d="m 79.464431,92.565055 c 0.06074,-0.09109 0.061,-0.193755 0.273043,-0.273139 l 3.16778,0.0016 c 0.1264,0.06652 0.211924,0.157026 0.263233,0.267601 l -0.01389,3.183189 c -0.05944,0.102531 -0.116528,0.207028 -0.249036,0.248322 -1.054149,0.0011 -2.108298,0.0024 -3.162447,0.0035 -0.114603,-0.05746 -0.207925,-0.124671 -0.27626,-0.258667 z"
       id="path2325"
       sodipodi:nodetypes="ccccccccc" />
    <ellipse
       style="fill:#080817;fill-opacity:1;stroke-width:0.0136192"
       id="path2357"
       cx="80.29184"
       cy="93.138306"
       rx="0.34046614"
       ry="0.35309818" />
    <rect
       style="fill:#070716;fill-opacity:1;stroke-width:0.0136192"
       id="rect2385"
       width="0.55325747"
       height="1.6763244"
       x="80.022301"
       y="93.762474"
       ry="0" />
    <path
       style="fill:none;stroke:#000000;stroke-width:0.0136192px;stroke-linecap:butt;stroke-linejoin:miter;stroke-opacity:1"
       d="m 80.944491,93.765467 0.552281,0.0033 v 0.214451 c 0.132465,-0.148672 0.276744,-0.239722 0.490079,-0.248312 0.310055,0.04661 0.519831,0.18821 0.617277,0.55682 l 0.0037,1.143739 h -0.55742 l -0.0075,-1.019583 c -0.01241,-0.109547 -0.0634,-0.223654 -0.273097,-0.240787 -0.181971,0.0097 -0.249876,0.127188 -0.273098,0.24455 l 0.0037,1.01582 h -0.564902 z"
       id="path2420"
       sodipodi:nodetypes="ccccccccccccc" />
    <path
       style="fill:#000000;fill-opacity:0;stroke-width:0.015261"
       d="m 80.954669,94.602508 v -0.826427 h 0.266312 0.266313 v 0.116318 0.116317 l 0.0837,-0.07693 c 0.159376,-0.146488 0.33402,-0.203129 0.504043,-0.163475 0.207902,0.04849 0.356706,0.165206 0.447755,0.351201 0.04612,0.09422 0.05263,0.123741 0.0623,0.282626 0.0059,0.09758 0.01131,0.368528 0.01195,0.602108 l 0.0012,0.424692 H 82.33365 82.069058 l -0.0058,-0.531821 c -0.0054,-0.501997 -0.0075,-0.535254 -0.03731,-0.593038 -0.07445,-0.144448 -0.305866,-0.187344 -0.439667,-0.0815 -0.02307,0.01825 -0.05463,0.06127 -0.07013,0.0956 -0.02566,0.05682 -0.02822,0.109443 -0.02852,0.586589 l -3.34e-4,0.524169 h -0.266312 -0.266313 z"
       id="path57414" />
    <path
       style="fill:#000000;fill-opacity:0;stroke-width:0.015261"
       d="m 80.954669,94.602508 v -0.826427 h 0.266312 0.266313 v 0.116318 0.116317 l 0.0837,-0.07693 c 0.159376,-0.146488 0.33402,-0.203129 0.504043,-0.163475 0.207902,0.04849 0.356706,0.165206 0.447755,0.351201 0.04612,0.09422 0.05263,0.123741 0.0623,0.282626 0.0059,0.09758 0.01131,0.368528 0.01195,0.602108 l 0.0012,0.424692 H 82.33365 82.069058 l -0.0058,-0.531821 c -0.0054,-0.501997 -0.0075,-0.535254 -0.03731,-0.593038 -0.07445,-0.144448 -0.305866,-0.187344 -0.439667,-0.0815 -0.02307,0.01825 -0.05463,0.06127 -0.07013,0.0956 -0.02566,0.05682 -0.02822,0.109443 -0.02852,0.586589 l -3.34e-4,0.524169 h -0.266312 -0.266313 z"
       id="path57453" />
    <path
       style="fill:#000000;fill-opacity:0;stroke-width:0.00448971"
       d="m 80.947559,94.76939 c 0.0015,-0.362164 0.004,-0.733953 0.0055,-0.826197 l 0.0027,-0.167715 h 0.265861 0.265861 v 0.112561 c 0,0.06191 0.0011,0.112561 0.0024,0.112561 0.0013,0 0.02499,-0.02288 0.0526,-0.05084 0.123815,-0.125381 0.252692,-0.189266 0.4106,-0.203535 0.0621,-0.0056 0.208361,0.03203 0.296491,0.07632 0.05848,0.02938 0.09959,0.05853 0.145842,0.103403 0.08292,0.08044 0.13925,0.17671 0.184638,0.315532 l 0.01472,0.04502 0.002,0.570684 0.002,0.570684 h -0.268607 -0.268607 l -0.0027,-0.140702 c -0.0015,-0.07739 -0.0038,-0.307858 -0.0052,-0.51216 -0.0028,-0.410992 -0.0026,-0.408062 -0.03171,-0.467606 -0.03325,-0.06796 -0.09745,-0.113066 -0.18761,-0.131822 -0.05606,-0.01166 -0.105343,-0.0095 -0.156696,0.0069 -0.08293,0.02645 -0.138203,0.08208 -0.17378,0.174905 l -0.01426,0.03719 0.0014,0.516654 0.0014,0.516655 h -0.273945 -0.273946 z"
       id="path57492" />
    <path
       style="opacity:1;fill:#070716;fill-opacity:1;stroke-width:0.00448971"
       d="m 80.947559,94.76939 c 0.0015,-0.362164 0.004,-0.733953 0.0055,-0.826197 l 0.0027,-0.167715 h 0.265861 0.265861 v 0.112561 c 0,0.06191 0.0011,0.112561 0.0024,0.112561 0.0013,0 0.02499,-0.02288 0.0526,-0.05084 0.123815,-0.125381 0.252692,-0.189266 0.4106,-0.203535 0.0621,-0.0056 0.208361,0.03203 0.296491,0.07632 0.05848,0.02938 0.09959,0.05853 0.145842,0.103403 0.08292,0.08044 0.13925,0.17671 0.184638,0.315532 l 0.01472,0.04502 0.002,0.570684 0.002,0.570684 h -0.268607 -0.268607 l -0.0027,-0.140702 c -0.0015,-0.07739 -0.0038,-0.307858 -0.0052,-0.51216 -0.0028,-0.410992 -0.0026,-0.408062 -0.03171,-0.467606 -0.03325,-0.06796 -0.09745,-0.113066 -0.18761,-0.131822 -0.05606,-0.01166 -0.105343,-0.0095 -0.156696,0.0069 -0.08293,0.02645 -0.138203,0.08208 -0.17378,0.174905 l -0.01426,0.03719 0.0014,0.516654 0.0014,0.516655 h -0.273945 -0.273946 z"
       id="path57531" />
  </g>
</svg>
